<svg width="24" height="18" viewBox="0 0 24 18" xmlns="http://www.w3.org/2000/svg">
  <!-- United Kingdom flag (Union Jack) -->
  <rect width="24" height="18" fill="#012169"/>
  
  <!-- White diagonals -->
  <polygon points="0,0 3.2,0 24,14.4 24,18 20.8,18 0,3.6" fill="#FFFFFF"/>
  <polygon points="24,0 20.8,0 0,14.4 0,18 3.2,18 24,3.6" fill="#FFFFFF"/>
  
  <!-- Red diagonals -->
  <polygon points="0,0 1.6,0 24,15.2 24,18 22.4,18 0,2.8" fill="#C8102E"/>
  <polygon points="24,0 22.4,0 0,15.2 0,18 1.6,18 24,2.8" fill="#C8102E"/>
  
  <!-- White cross -->
  <rect x="9.6" y="0" width="4.8" height="18" fill="#FFFFFF"/>
  <rect x="0" y="6.6" width="24" height="4.8" fill="#FFFFFF"/>
  
  <!-- Red cross -->
  <rect x="10.8" y="0" width="2.4" height="18" fill="#C8102E"/>
  <rect x="0" y="7.8" width="24" height="2.4" fill="#C8102E"/>
</svg>