<svg width="24" height="18" viewBox="0 0 24 18" xmlns="http://www.w3.org/2000/svg">
  <!-- China flag with five stars -->
  <rect width="24" height="18" fill="#DE2910"/>
  
  <!-- Large star -->
  <g transform="translate(4.8,3.6)">
    <polygon points="0,-1.2 0.35,-0.37 1.27,-0.37 0.46,0.12 0.81,0.95 0,-0.56 -0.81,0.95 -0.46,0.12 -1.27,-0.37 -0.35,-0.37" fill="#FFDE00"/>
  </g>
  
  <!-- Four smaller stars -->
  <g transform="translate(8.4,1.8)">
    <polygon points="0,-0.6 0.18,-0.18 0.64,-0.18 0.23,0.06 0.41,0.48 0,-0.28 -0.41,0.48 -0.23,0.06 -0.64,-0.18 -0.18,-0.18" fill="#FFDE00"/>
  </g>
  <g transform="translate(9.6,3.6)">
    <polygon points="0,-0.6 0.18,-0.18 0.64,-0.18 0.23,0.06 0.41,0.48 0,-0.28 -0.41,0.48 -0.23,0.06 -0.64,-0.18 -0.18,-0.18" fill="#FFDE00"/>
  </g>
  <g transform="translate(9.6,5.4)">
    <polygon points="0,-0.6 0.18,-0.18 0.64,-0.18 0.23,0.06 0.41,0.48 0,-0.28 -0.41,0.48 -0.23,0.06 -0.64,-0.18 -0.18,-0.18" fill="#FFDE00"/>
  </g>
  <g transform="translate(8.4,6.6)">
    <polygon points="0,-0.6 0.18,-0.18 0.64,-0.18 0.23,0.06 0.41,0.48 0,-0.28 -0.41,0.48 -0.23,0.06 -0.64,-0.18 -0.18,-0.18" fill="#FFDE00"/>
  </g>
</svg>